<?xml version="1.0" standalone="no"?>
<!DOCTYPE svg PUBLIC "-//W3C//DTD SVG 20010904//EN"
 "http://www.w3.org/TR/2001/REC-SVG-20010904/DTD/svg10.dtd">
<svg version="1.0" xmlns="http://www.w3.org/2000/svg"
 width="926.000000pt" height="926.000000pt" viewBox="0 0 926.000000 926.000000"
 preserveAspectRatio="xMidYMid meet">
<metadata>
Created by potrace 1.11, written by Peter Selinger 2001-2013
</metadata>
<g transform="translate(0.000000,926.000000) scale(0.100000,-0.100000)"
fill="#000000" stroke="none">
<path d="M4365 8942 c-2 -2 -32 -5 -67 -8 -83 -5 -154 -11 -203 -18 -22 -3
-58 -8 -80 -11 -23 -3 -52 -8 -65 -11 -14 -3 -36 -7 -50 -9 -45 -6 -95 -15
-120 -20 -14 -4 -36 -8 -50 -11 -14 -2 -32 -7 -40 -10 -8 -3 -26 -8 -40 -10
-32 -5 -65 -12 -65 -14 0 -1 -11 -3 -25 -6 -14 -2 -32 -7 -40 -11 -8 -3 -21
-5 -27 -4 -7 1 -13 -2 -13 -6 0 -5 -8 -9 -17 -10 -46 -5 -83 -16 -83 -26 0 -6
-3 -8 -6 -5 -3 4 -20 2 -37 -3 -18 -6 -39 -12 -47 -14 -8 -2 -40 -13 -70 -25
-30 -12 -63 -23 -74 -25 -10 -2 -24 -9 -30 -15 -7 -5 -16 -7 -19 -3 -4 3 -7 1
-7 -6 0 -7 -4 -10 -8 -7 -5 3 -20 -1 -35 -9 -14 -7 -28 -11 -31 -7 -3 3 -6 0
-6 -7 0 -7 -4 -9 -10 -6 -5 3 -10 1 -10 -6 0 -7 -3 -9 -6 -6 -4 3 -16 1 -28
-5 -11 -7 -28 -13 -36 -14 -8 -2 -16 -7 -18 -13 -2 -5 -10 -7 -18 -4 -8 3 -14
0 -14 -6 0 -6 -9 -11 -20 -11 -11 0 -20 -5 -20 -11 0 -5 -4 -7 -10 -4 -5 3
-10 1 -10 -4 0 -6 -3 -10 -7 -9 -12 2 -87 -33 -94 -44 -3 -5 -9 -9 -13 -8 -10
2 -100 -44 -104 -52 -2 -5 -10 -8 -18 -8 -8 0 -14 -5 -14 -11 0 -5 -4 -8 -9
-4 -5 3 -16 -1 -24 -9 -8 -8 -17 -12 -21 -9 -3 4 -6 2 -6 -4 0 -6 -13 -16 -30
-23 -16 -7 -30 -17 -30 -22 0 -5 -4 -6 -10 -3 -5 3 -10 1 -10 -5 0 -6 -4 -9
-9 -5 -5 3 -16 -3 -23 -12 -7 -10 -19 -19 -27 -21 -8 -2 -21 -11 -29 -20 -9
-12 -12 -13 -7 -2 4 10 2 9 -8 -2 -8 -10 -18 -18 -22 -18 -4 0 -14 -8 -22 -17
-9 -11 -11 -12 -7 -3 8 16 -28 -11 -54 -40 -12 -13 -13 -13 -7 0 4 8 -2 5 -13
-7 -11 -12 -22 -19 -26 -16 -3 4 -6 2 -6 -3 0 -6 -18 -20 -40 -33 -22 -12 -40
-26 -40 -32 0 -5 -6 -9 -14 -9 -8 0 -24 -12 -36 -27 -12 -16 -25 -27 -28 -26
-4 1 -25 -14 -47 -33 -22 -19 -44 -34 -48 -34 -5 0 -5 -4 -2 -10 3 -5 -1 -10
-10 -10 -8 0 -18 -7 -21 -15 -4 -8 -10 -15 -15 -15 -18 0 -309 -280 -309 -297
0 -7 -5 -15 -12 -19 -7 -5 -8 -3 -3 7 8 12 6 12 -8 0 -9 -7 -15 -17 -12 -21 3
-5 -4 -12 -16 -15 -11 -4 -18 -9 -16 -12 3 -2 -12 -22 -34 -44 -21 -21 -37
-39 -34 -39 3 0 -12 -16 -33 -36 -20 -20 -28 -31 -17 -24 11 8 3 -2 -17 -22
-21 -19 -38 -38 -38 -42 0 -5 -11 -17 -25 -28 -14 -11 -25 -26 -25 -34 0 -8
-5 -14 -11 -14 -5 0 -8 -4 -5 -9 3 -5 -1 -12 -10 -15 -9 -4 -14 -9 -11 -12 3
-3 -6 -17 -20 -30 -14 -13 -22 -24 -18 -24 5 0 0 -7 -11 -15 -10 -8 -15 -15
-10 -15 4 0 -1 -8 -12 -17 -12 -10 -22 -24 -24 -32 -2 -8 -15 -28 -30 -44 -15
-16 -25 -34 -22 -38 3 -5 -2 -12 -10 -15 -9 -3 -14 -10 -11 -14 3 -4 -2 -11
-11 -14 -8 -3 -12 -10 -9 -16 3 -5 1 -10 -4 -10 -6 0 -11 -7 -11 -15 0 -8 -4
-15 -10 -15 -5 0 -10 -7 -10 -15 0 -8 -5 -15 -11 -15 -5 0 -8 -4 -5 -9 3 -4
-3 -16 -14 -26 -11 -10 -17 -22 -14 -26 3 -5 0 -9 -5 -9 -6 0 -11 -9 -11 -21
0 -11 -4 -18 -9 -15 -5 3 -12 -1 -15 -10 -4 -10 -2 -13 7 -8 6 4 2 -3 -11 -15
-12 -12 -20 -26 -17 -32 4 -5 1 -9 -4 -9 -6 0 -11 -6 -11 -14 0 -7 -7 -19 -15
-26 -8 -7 -15 -19 -15 -27 0 -8 -9 -27 -20 -43 -11 -15 -17 -30 -13 -34 3 -3
1 -6 -6 -6 -7 0 -11 -6 -8 -12 2 -7 -3 -19 -12 -26 -13 -11 -13 -12 -1 -6 13
7 13 5 0 -12 -26 -33 -50 -81 -43 -88 3 -3 1 -6 -5 -6 -7 0 -11 -3 -10 -7 0
-5 -7 -26 -17 -48 -9 -22 -19 -47 -20 -55 -2 -8 -4 -17 -5 -20 -1 -3 -2 -8 -1
-12 0 -5 -4 -8 -9 -8 -6 0 -10 -4 -10 -9 0 -5 -5 -22 -12 -38 -6 -15 -12 -31
-13 -35 -2 -5 -3 -9 -5 -10 -1 -2 -3 -10 -5 -18 -2 -8 -10 -32 -19 -52 -9 -21
-13 -38 -10 -38 4 0 1 -6 -5 -13 -6 -8 -12 -22 -14 -33 -1 -10 -6 -25 -10 -31
-5 -7 -6 -17 -3 -22 4 -5 1 -11 -5 -13 -6 -2 -12 -16 -12 -31 -1 -15 -6 -27
-11 -27 -4 0 -6 -6 -3 -14 3 -8 3 -17 -1 -21 -4 -4 -8 -11 -8 -16 -1 -5 -2
-10 -4 -11 -2 -4 -10 -40 -12 -60 -1 -10 -7 -18 -12 -18 -5 0 -7 -3 -4 -6 4
-3 2 -20 -3 -37 -6 -18 -12 -43 -14 -57 -2 -14 -7 -36 -10 -50 -3 -14 -7 -35
-9 -48 -3 -12 -7 -31 -11 -41 -3 -11 -8 -37 -11 -58 -5 -38 -8 -59 -19 -123
-3 -19 -8 -53 -10 -75 -2 -22 -5 -40 -6 -40 -1 0 -3 -16 -5 -35 -1 -19 -5 -62
-8 -95 -26 -255 -22 -646 9 -885 3 -25 7 -58 9 -75 8 -58 17 -120 23 -150 3
-16 6 -40 6 -52 1 -13 3 -23 6 -23 4 0 7 -10 8 -22 1 -13 4 -36 8 -53 3 -16 7
-39 9 -50 2 -11 4 -20 6 -20 1 0 3 -9 5 -20 2 -11 6 -31 10 -45 3 -14 9 -38
11 -55 3 -16 9 -31 14 -33 4 -2 6 -12 3 -22 -3 -12 0 -20 8 -20 7 0 10 -3 7
-6 -4 -3 -2 -20 4 -37 5 -18 10 -36 11 -42 2 -5 6 -16 10 -22 5 -7 6 -13 3
-13 -3 0 3 -22 14 -49 10 -27 16 -52 13 -55 -4 -3 -2 -6 3 -6 5 0 11 -11 12
-25 1 -14 8 -35 16 -48 8 -12 15 -25 16 -29 0 -8 1 -12 5 -25 2 -8 19 -53 32
-83 3 -8 5 -18 5 -22 -1 -5 3 -8 10 -8 6 0 8 -3 5 -7 -4 -3 -2 -12 4 -20 6 -7
8 -13 5 -13 -4 0 3 -14 15 -32 13 -17 17 -28 10 -24 -10 6 -10 3 1 -15 7 -13
17 -27 21 -30 5 -3 8 -8 7 -10 -4 -12 50 -132 63 -137 4 -2 5 -8 1 -13 -3 -5
0 -9 6 -9 6 0 9 -4 5 -9 -3 -5 1 -15 8 -23 7 -7 28 -43 46 -80 18 -38 38 -68
43 -68 5 0 7 -4 3 -9 -3 -5 1 -16 9 -24 8 -8 12 -17 9 -21 -4 -3 -1 -6 5 -6 7
0 12 -7 12 -15 0 -8 5 -15 12 -15 6 0 9 -3 5 -6 -3 -4 5 -21 18 -39 14 -17 25
-37 25 -43 0 -7 3 -12 8 -12 4 0 13 -13 20 -28 6 -16 20 -37 30 -48 10 -10 21
-27 25 -36 3 -10 11 -18 17 -18 6 0 9 -4 6 -9 -3 -5 1 -12 10 -15 8 -3 13 -10
9 -15 -3 -6 3 -14 12 -20 10 -6 14 -11 9 -11 -5 0 4 -12 20 -26 16 -15 22 -23
14 -19 -8 5 -1 -7 15 -26 17 -19 33 -35 38 -37 4 -2 7 -8 7 -13 0 -10 22 -39
58 -76 12 -13 22 -27 22 -30 0 -4 17 -22 37 -41 21 -20 31 -32 23 -27 -8 5 0
-6 18 -23 17 -18 32 -37 32 -43 0 -5 3 -8 7 -6 9 6 34 -19 32 -30 -1 -5 9 -14
22 -20 13 -7 20 -13 16 -13 -5 0 35 -44 88 -98 54 -53 102 -96 106 -94 5 1 9
-4 9 -12 0 -7 10 -21 23 -29 12 -9 39 -30 59 -49 21 -18 54 -46 73 -63 20 -16
48 -41 62 -55 14 -14 22 -18 17 -10 -7 14 28 -16 79 -65 11 -11 16 -13 12 -5
-5 8 2 5 16 -7 53 -49 85 -73 97 -73 6 0 12 -5 12 -11 0 -5 4 -8 9 -5 5 3 11
-1 14 -9 3 -7 21 -21 39 -31 18 -9 42 -24 53 -34 11 -10 26 -20 34 -22 7 -2
25 -13 39 -25 14 -13 29 -23 34 -23 5 0 25 -11 45 -25 20 -13 41 -21 46 -18 6
3 7 1 3 -5 -4 -6 8 -16 29 -23 19 -7 35 -17 35 -22 0 -4 4 -6 9 -3 5 4 11 2
13 -3 1 -5 10 -11 18 -13 8 -2 21 -9 28 -16 8 -7 18 -10 23 -7 5 4 9 1 9 -6 0
-7 3 -10 6 -6 4 3 13 -1 21 -9 8 -8 18 -12 23 -9 4 3 11 -2 14 -10 3 -8 9 -14
13 -13 4 1 31 -9 58 -22 28 -13 53 -23 58 -22 4 1 7 -3 7 -9 0 -6 6 -9 14 -6
8 3 17 -1 20 -10 4 -8 13 -13 21 -9 8 3 15 1 15 -5 0 -6 5 -7 10 -4 6 3 10 1
10 -4 0 -6 3 -10 8 -9 4 1 17 -3 30 -10 12 -7 26 -10 31 -7 5 3 11 1 13 -4 1
-5 12 -11 23 -13 11 -1 23 -7 26 -11 3 -5 12 -9 20 -10 8 -2 20 -6 27 -10 6
-5 16 -5 22 -2 6 3 10 2 10 -3 0 -8 11 -13 63 -27 4 -2 8 -3 10 -5 3 -2 40
-11 55 -12 6 -1 12 -5 12 -10 0 -5 6 -8 13 -7 6 1 24 -3 40 -9 15 -7 38 -14
50 -16 12 -2 35 -9 50 -15 16 -6 33 -9 38 -5 5 3 9 1 9 -4 0 -6 17 -13 38 -16
48 -8 63 -12 84 -20 9 -4 22 -5 28 -1 5 3 10 1 10 -6 0 -6 8 -9 20 -6 11 3 20
2 20 -3 0 -4 10 -6 23 -6 12 1 27 -2 33 -6 7 -5 16 -8 20 -7 5 1 11 0 14 -1 5
-3 23 -6 85 -14 17 -2 30 -5 30 -6 0 -1 11 -3 25 -5 14 -2 43 -6 65 -9 22 -4
58 -9 80 -12 22 -3 63 -8 90 -10 28 -2 79 -7 115 -11 36 -3 189 -6 340 -6 247
0 339 4 450 18 19 2 60 7 90 10 79 9 105 13 105 15 0 1 14 3 30 6 63 8 90 12
90 14 0 1 9 3 20 5 55 8 102 17 117 21 22 6 56 14 93 21 17 2 36 10 43 15 6 6
12 8 12 5 0 -3 20 0 44 7 25 8 47 11 50 8 4 -3 6 0 6 7 0 7 4 9 10 6 6 -3 16
-3 23 2 6 4 21 9 31 10 11 2 25 8 31 13 7 5 14 7 18 4 3 -3 16 0 29 7 12 7 29
12 36 11 6 -2 12 2 12 7 0 6 6 8 14 5 8 -3 17 -1 21 5 3 6 17 11 31 11 13 0
24 5 24 10 0 6 3 9 8 9 17 -3 72 14 72 23 0 5 5 6 10 3 6 -3 10 -2 10 4 0 6 7
8 15 5 8 -4 15 -1 15 7 0 7 3 9 7 6 3 -4 12 -2 20 4 7 6 13 8 13 5 0 -4 10 -1
23 6 12 7 25 11 30 10 4 -1 7 2 7 8 0 6 3 9 8 8 11 -4 122 46 122 55 0 4 4 6
9 2 5 -3 12 -1 16 5 3 5 13 10 22 10 9 0 32 12 51 27 20 15 32 20 28 12 -5 -9
-3 -8 6 2 7 9 19 14 26 12 6 -3 12 -1 12 4 0 5 16 15 35 23 19 8 35 18 35 22
0 5 4 7 9 3 5 -3 13 0 16 6 4 6 27 19 51 29 24 11 44 24 44 30 0 6 4 9 9 6 5
-3 14 1 21 9 7 8 18 15 26 15 7 0 18 8 23 17 6 10 11 14 11 9 0 -6 7 -1 16 10
8 10 12 12 8 4 -7 -13 -6 -13 12 0 10 8 25 22 32 30 12 13 13 13 6 0 -9 -16
42 20 83 60 15 14 23 18 18 10 -10 -17 29 12 58 45 10 11 16 13 12 5 -4 -8 3
-4 14 9 12 13 21 20 21 17 0 -11 94 62 157 121 12 12 23 19 23 16 0 -3 12 7
28 23 15 16 32 31 37 33 6 1 9 7 7 13 -1 5 2 7 7 4 5 -3 26 13 47 36 20 24 31
34 23 23 -13 -18 -13 -19 4 -6 9 7 17 20 17 27 0 8 4 13 9 12 5 -2 34 22 64
53 31 31 58 54 61 51 3 -3 6 -1 6 5 0 6 37 48 83 94 45 46 75 79 67 75 -8 -5
2 6 23 25 20 19 37 38 37 43 0 4 11 17 25 28 14 11 23 24 20 29 -4 5 -2 9 3 9
6 0 30 23 54 52 23 29 36 49 28 44 -8 -4 -3 2 12 14 16 12 28 28 28 36 0 8 5
14 10 14 6 0 10 7 10 16 0 8 5 12 10 9 6 -3 10 -1 10 4 0 21 3 26 21 39 11 7
19 19 19 26 0 8 7 17 16 20 8 3 13 10 10 15 -4 5 -3 11 1 13 12 5 75 98 67 98
-4 0 1 7 12 15 10 8 15 15 9 15 -6 0 -6 3 0 8 17 11 57 71 59 88 1 9 7 19 13
22 10 7 41 62 45 79 1 5 8 14 15 21 7 8 11 18 8 23 -4 5 -1 9 5 9 9 0 20 19
31 55 1 6 9 16 16 23 7 8 11 17 8 22 -3 5 0 10 5 12 6 2 12 10 13 18 1 8 10
26 19 39 10 13 15 28 12 33 -3 4 0 8 5 8 6 0 10 3 9 7 -1 5 3 18 10 29 6 12 8
24 5 28 -3 3 -2 6 4 6 9 0 16 12 27 50 1 3 5 11 9 18 5 6 5 12 0 12 -4 0 -2 4
5 9 7 4 14 18 15 29 1 12 5 22 10 22 4 0 5 5 2 10 -3 6 -1 10 4 10 6 0 11 6
11 14 0 8 4 25 9 38 5 13 9 28 10 33 1 6 9 20 17 33 8 12 12 22 8 22 -4 0 -1
7 6 15 6 8 9 19 5 25 -3 5 -1 10 5 10 7 0 10 7 6 15 -3 8 -1 15 5 15 6 0 8 4
4 9 -3 5 0 13 6 16 5 4 8 13 5 21 -3 8 0 14 6 14 6 0 8 3 5 7 -4 3 -2 12 3 19
6 6 10 16 9 20 -1 5 1 16 4 24 10 24 40 134 42 150 0 9 4 21 9 28 4 6 4 17 1
22 -3 6 -2 10 4 10 5 0 10 8 10 18 0 9 7 47 15 83 24 106 28 123 30 149 1 14
6 31 10 38 4 7 5 16 2 21 -4 5 -2 20 3 33 5 13 12 50 15 83 4 33 9 76 11 95
19 149 27 296 27 490 1 211 -7 356 -28 515 -4 28 -8 64 -9 80 -2 17 -4 30 -5
30 -1 0 -3 16 -6 35 -2 19 -9 60 -15 90 -6 30 -12 66 -15 80 -2 14 -6 36 -9
50 -2 14 -6 36 -9 50 -2 14 -5 25 -6 25 -2 0 -7 22 -15 60 -3 17 -8 37 -12 45
-3 8 -7 22 -8 30 -2 8 -6 26 -10 40 -4 14 -7 31 -7 38 -1 6 -4 12 -8 12 -3 0
-6 8 -7 18 -4 38 -16 82 -22 82 -4 0 -8 12 -9 27 -1 15 -5 29 -10 32 -7 6 -10
15 -17 53 -2 9 -9 26 -15 37 -6 12 -8 21 -5 21 3 0 -1 10 -10 23 -8 13 -12 27
-8 30 3 4 1 7 -6 7 -7 0 -10 4 -7 8 3 5 -1 20 -9 35 -8 15 -12 27 -9 27 3 0
-1 10 -8 23 -7 12 -11 25 -10 30 1 4 -3 7 -8 7 -5 0 -9 3 -8 8 1 4 -6 24 -15
46 -9 21 -17 42 -17 47 0 5 -5 9 -12 9 -6 0 -8 3 -5 6 3 4 1 16 -5 28 -7 11
-13 23 -14 26 -1 3 -5 15 -9 28 -4 12 -11 22 -16 22 -5 0 -8 3 -7 8 2 10 -24
65 -35 73 -5 3 -8 8 -6 10 2 4 -29 65 -61 119 -11 19 -23 43 -26 53 -4 9 -11
17 -16 17 -5 0 -6 5 -3 10 3 6 -1 13 -9 16 -9 3 -14 9 -12 13 2 3 -9 25 -25
49 -16 23 -29 47 -29 52 0 6 -4 10 -10 10 -5 0 -19 19 -30 43 -22 46 -90 144
-90 131 0 -5 -10 10 -21 34 -12 24 -30 49 -40 55 -11 7 -19 15 -19 19 0 15
-57 87 -64 81 -3 -3 -6 0 -6 7 0 8 -9 23 -19 35 -54 56 -71 77 -71 84 0 5 -8
15 -17 22 -15 12 -16 12 -8 -1 5 -9 5 -12 -1 -7 -5 5 -9 12 -9 16 0 20 -274
297 -289 293 -6 -2 -8 0 -3 4 9 9 -22 44 -40 44 -7 0 -13 7 -13 15 0 8 -4 15
-10 15 -5 0 -20 10 -33 23 -92 86 -107 99 -107 92 0 -5 -10 4 -23 18 -12 15
-28 27 -34 27 -6 0 -13 3 -15 8 -1 4 -25 25 -53 47 -27 22 -46 33 -41 25 6
-13 6 -13 -6 0 -30 33 -81 74 -74 60 7 -13 6 -13 -6 0 -24 27 -62 56 -53 40 5
-8 -11 2 -35 23 -24 20 -49 37 -56 37 -6 0 -15 7 -18 16 -3 8 -10 13 -15 10
-5 -4 -11 -2 -13 3 -1 5 -10 11 -18 13 -8 2 -22 10 -30 18 -8 8 -22 16 -30 18
-8 2 -16 8 -18 13 -2 5 -10 9 -18 9 -8 0 -14 5 -14 10 0 6 -9 10 -20 10 -11 0
-20 4 -20 9 0 5 -21 19 -47 32 -27 12 -56 29 -65 37 -9 7 -22 11 -27 7 -6 -3
-11 -1 -11 5 0 6 -5 8 -10 5 -6 -3 -13 1 -16 9 -3 9 -11 16 -18 16 -6 0 -40
14 -76 32 -36 17 -71 31 -77 31 -7 0 -13 4 -13 8 0 8 -70 34 -82 31 -5 -1 -8
2 -8 8 0 5 -6 10 -13 10 -7 0 -32 9 -55 20 -22 11 -50 20 -61 20 -10 0 -21 4
-23 10 -1 5 -12 11 -23 13 -11 2 -29 7 -40 11 -65 25 -91 34 -100 36 -5 1 -21
7 -35 12 -14 6 -35 11 -47 11 -13 1 -23 5 -23 8 0 5 -8 7 -50 11 -11 1 -20 7
-20 12 0 5 -3 6 -7 3 -3 -4 -12 -2 -19 4 -8 6 -21 9 -29 5 -8 -3 -15 -1 -15 3
0 5 -8 8 -17 7 -10 -2 -20 0 -23 4 -3 4 -21 10 -40 13 -19 3 -42 7 -50 10 -13
5 -31 9 -105 22 -11 2 -20 4 -20 5 0 1 -9 3 -20 5 -42 6 -111 17 -135 21 -64
11 -219 30 -340 40 -68 6 -579 11 -585 6z"/>
</g>
</svg>
