<?xml version="1.0" standalone="no"?>
<!DOCTYPE svg PUBLIC "-//W3C//DTD SVG 20010904//EN"
 "http://www.w3.org/TR/2001/REC-SVG-20010904/DTD/svg10.dtd">
<svg version="1.0" xmlns="http://www.w3.org/2000/svg"
 width="568.000000pt" height="568.000000pt" viewBox="0 0 568.000000 568.000000"
 preserveAspectRatio="xMidYMid meet">
<metadata>
Created by potrace 1.11, written by Peter Selinger 2001-2013
</metadata>
<g transform="translate(0.000000,568.000000) scale(0.100000,-0.100000)"
fill="#000000" stroke="none">
<path d="M2630 5672 c-105 -6 -277 -33 -440 -67 -56 -12 -224 -61 -304 -90
-550 -196 -1020 -554 -1366 -1039 -223 -311 -406 -737 -466 -1086 -4 -25 -8
-47 -9 -50 -1 -3 -5 -27 -9 -55 -4 -27 -9 -61 -11 -74 -26 -165 -26 -545 0
-741 11 -88 52 -292 71 -360 174 -603 457 -1044 932 -1452 206 -178 560 -380
842 -481 117 -42 317 -99 392 -112 18 -3 40 -8 48 -10 8 -2 35 -7 60 -10 25
-3 52 -8 60 -10 8 -2 47 -7 86 -10 39 -3 86 -8 105 -10 41 -6 378 -6 434 0 22
2 69 7 105 10 36 3 72 8 80 10 8 2 33 6 55 9 22 4 63 11 90 16 28 6 59 12 70
14 57 11 190 49 270 76 50 17 97 33 105 35 47 11 286 122 400 186 127 71 328
211 452 316 70 59 296 292 361 373 172 214 313 454 422 715 40 97 117 333 129
395 2 14 11 54 19 90 9 36 18 85 21 110 3 25 8 55 10 67 3 12 8 53 11 90 4 37
9 79 11 93 6 36 6 373 -1 450 -41 463 -182 890 -417 1266 -56 90 -154 231
-168 244 -3 3 -16 19 -29 35 -43 56 -136 159 -211 235 -437 438 -1007 720
-1625 804 -22 3 -62 8 -90 12 -53 6 -419 11 -495 6z"/>
</g>
</svg>
